# xmcd
#
# Track frame offsets:
#	150
#	13197
#	26220
#	38637
#	51582
#	66182
#	80835
#	92310
#	105620
#	119912
#	136900
#
# Disc length: 1992 seconds
#
# Revision: 0
# Processed by: cddbd v1.5.2PL0 Copyright (c) Steve Scherf et al.
# Submitted via: dBpowerAMP V4.0
#
DISCID=9a07c60b
DTITLE=Various Artist - Tennessee Star Traks
DYEAR=1993
DGENRE=Country
TTITLE0=J. Brian Oakes - Dancin' In The Back Yard
TTITLE1=Cathy Korpi - Head On Collision With Love
TTITLE2=Tim Alan Cain - I Guess Things Hapen That Way
TTITLE3=Larry Magee - I Take The Fifth
TTITLE4=Reg Bnoit - It's Best You're Gone
TTITLE5=Brian Dolph - One Day Blue
TTITLE6=Darlene Summers - Say Goodbye
TTITLE7=Cindi Cain - Somewhere In Between
TTITLE8=Red Hot Burritos - Taken By Surprise
TTITLE9=Al White - Those Ladies In Texas
TTITLE10=Frieda Avery Hirsch - You Can't Keep A Cowboy Out Of Texas
EXTD=
EXTT0=
EXTT1=
EXTT2=
EXTT3=
EXTT4=
EXTT5=
EXTT6=
EXTT7=
EXTT8=
EXTT9=
EXTT10=
PLAYORDER=
